HIERARCHY
ROOT Hips
{
  OFFSET 54.1083 94.2345 36.4578
  CHANNELS 6 Xposition Yposition Zposition Zrotation Xrotation Yrotation
  JOINT spine
  {
    OFFSET 0 7.80059 0.448573
    CHANNELS 3 Zrotation Xrotation Yrotation
    JOINT spine1
    {
      OFFSET 0 10.1364 0
      CHANNELS 3 Zrotation Xrotation Yrotation
      JOINT spine2
      {
        OFFSET 0 9.71251 0
        CHANNELS 3 Zrotation Xrotation Yrotation
        JOINT Neck
        {
          OFFSET 0 24.9361 1.18887
          CHANNELS 3 Zrotation Xrotation Yrotation
          JOINT Head
          {
            OFFSET 0 7.53384 0
            CHANNELS 3 Zrotation Xrotation Yrotation
            End Site
            {
              OFFSET 0 18.2361 -6.01402
            }
          }
        }
        JOINT RightShoulder
        {
          OFFSET -4.08965 10.4888 -0.569457
          CHANNELS 3 Zrotation Xrotation Yrotation
          JOINT RightArm
          {
            OFFSET 0 13.757 0
            CHANNELS 3 Zrotation Xrotation Yrotation
            JOINT RightArmRoll
            {
              OFFSET 0 6.94478 0
              CHANNELS 3 Zrotation Xrotation Yrotation
              JOINT RightForeArm
              {
                OFFSET 0 20.2277 0
                CHANNELS 3 Zrotation Xrotation Yrotation
                JOINT RightForeArmRoll
                {
                  OFFSET 0 7.79312 0
                  CHANNELS 3 Zrotation Xrotation Yrotation
                  JOINT RightHand
                  {
                    OFFSET 0 15.6391 0
                    CHANNELS 3 Zrotation Xrotation Yrotation
                    End Site
                    {
                      OFFSET 0 0 0
                    }
                  }
                }
              }
            }
          }
        }
        JOINT LeftShoulder
        {
          OFFSET 4.08965 10.4888 -0.569457
          CHANNELS 3 Zrotation Xrotation Yrotation
          JOINT LeftArm
          {
            OFFSET 0 13.757 0
            CHANNELS 3 Zrotation Xrotation Yrotation
            JOINT LeftArmRoll
            {
              OFFSET 0 6.94478 0
              CHANNELS 3 Zrotation Xrotation Yrotation
              JOINT LeftForeArm
              {
                OFFSET 0 20.2277 0
                CHANNELS 3 Zrotation Xrotation Yrotation
                JOINT LeftForeArmRoll
                {
                  OFFSET 0 7.79312 0
                  CHANNELS 3 Zrotation Xrotation Yrotation
                  JOINT LeftHand
                  {
                    OFFSET 0 15.6391 0
                    CHANNELS 3 Zrotation Xrotation Yrotation
                    End Site
                    {
                      OFFSET 0 0 0
                    }
                  }
                }
              }
            }
          }
        }
      }
    }
  }
  JOINT RightUpLeg
  {
    OFFSET -6.91416 -1.26788 -1.06358
    CHANNELS 3 Zrotation Xrotation Yrotation
    JOINT RightUpLegRoll
    {
      OFFSET 0 18.3378 0
      CHANNELS 3 Zrotation Xrotation Yrotation
      JOINT RightLeg
      {
        OFFSET 0 -22.7085 0
        CHANNELS 3 Zrotation Xrotation Yrotation
        JOINT RightLegRoll
        {
          OFFSET 0 22.7828 0
          CHANNELS 3 Zrotation Xrotation Yrotation
          JOINT RightFoot
          {
            OFFSET 0 18.9629 0
            CHANNELS 3 Zrotation Xrotation Yrotation
            JOINT RightToeBase
            {
              OFFSET 0 15.852 0
              CHANNELS 3 Zrotation Xrotation Yrotation
              End Site
              {
                OFFSET 0.00671906 7.677 -0.884893
              }
            }
          }
        }
      }
    }
  }
  JOINT LeftUpLeg
  {
    OFFSET 6.91416 -1.26788 -1.06358
    CHANNELS 3 Zrotation Xrotation Yrotation
    JOINT LeftUpLegRoll
    {
      OFFSET 0 18.3379 0
      CHANNELS 3 Zrotation Xrotation Yrotation
      JOINT LeftLeg
      {
        OFFSET 0 22.7084 0
        CHANNELS 3 Zrotation Xrotation Yrotation
        JOINT LeftLegRoll
        {
          OFFSET 0 22.9934 0
          CHANNELS 3 Zrotation Xrotation Yrotation
          JOINT LeftFoot
          {
            OFFSET 0 18.7522 0
            CHANNELS 3 Zrotation Xrotation Yrotation
            JOINT LeftToeBase
            {
              OFFSET 0 15.852 0
              CHANNELS 3 Zrotation Xrotation Yrotation
              End Site
              {
                OFFSET -0.030112 7.677 -0.884893
              }
            }
          }
        }
      }
    }
  }
}
MOTION
Frames: 8
Frame Time: 0.00208333
49.535 54.877 7.56705 -5.8813 17.0244 16.1661 1.23259 5.47885 -0.653511 2.58789 14.9417 -1.60652 2.6205 16.5855 -1.6573 -28.9651 -34.4075 -19.5142 15.8462 -1.14581 -12.393 31.2931 -15.3634 -11.6925 138.281 31.2032 -69.4859 -5.04577e-006 -5.35856e-006 -8.16184e-006 25.7368 64.9349 -16.842 -6.64795e-006 1.65782e-005 -3 8.02888 -4.95096 0.697435 -41.5396 -16.0228 11.4077 -111.073 32.7296 63.6323 3.06485e-006 3.83064e-007 2.31611e-006 -19.463 79.9087 24.3451 -3.64487e-008 1.91204e-005 2.99998 -8.0291 -4.95163 -0.69771 -9.34301 79.3777 -171.566 180 7.01604e-015 179.209 -19.0566 74.2834 21.8005 2.8108e-006 -6.85472e-006 1.88335 -45.5163 83.6011 55.798 8.13649 25.2327 -3.48774 -25.1142 76.0607 -162.344 4.5067e-006 -1.99009e-005 -1.63479 167.308 -77.1919 165.533 -1.85049e-006 -4.47481e-006 -3.26613 45.3959 79.4712 -43.4123 -8.1766 25.849 3.50499 
49.5365 54.9727 7.61403 -5.91525 17.1906 16.1787 1.22584 5.45736 -0.657933 2.57419 14.8987 -1.61328 2.60678 16.5426 -1.66382 -28.9451 -34.645 -19.5487 15.7842 -1.04111 -12.3757 31.3668 -15.3611 -11.6833 138.308 31.2416 -69.4879 -5.04577e-006 -5.35856e-006 -8.16184e-006 25.7259 64.7426 -16.7468 -6.64795e-006 1.65782e-005 -3 8.02888 -4.95096 0.697435 -41.5893 -16.0296 11.4096 -110.97 32.6707 63.6468 3.06485e-006 3.83064e-007 2.31611e-006 -19.2989 79.9861 24.2424 -3.64487e-008 1.91204e-005 2.99998 -8.0291 -4.95163 -0.69771 -9.34789 79.37 -171.578 180 7.01604e-015 179.21 -19.1604 74.4068 21.8852 2.8108e-006 -6.85472e-006 1.88583 -45.8157 83.6242 56.0781 8.13649 25.2327 -3.48774 -25.095 76.0536 -162.333 4.5067e-006 -1.99009e-005 -1.62847 167.319 -77.2961 165.573 -1.85049e-006 -4.47481e-006 -3.26203 45.4304 79.4927 -43.4861 -8.17847 25.8761 3.50578 
49.5522 55.0706 7.65627 -5.9486 17.3497 16.1879 1.21967 5.4368 -0.661506 2.56166 14.8576 -1.6185 2.59422 16.5015 -1.66882 -28.9326 -34.8714 -19.5854 15.7301 -0.943938 -12.3601 31.4338 -15.3582 -11.6741 138.338 31.2805 -69.4886 -5.04577e-006 -5.35856e-006 -8.16184e-006 25.7143 64.5468 -16.6502 -6.64795e-006 1.65782e-005 -3 8.02888 -4.95096 0.697435 -41.6376 -16.0334 11.4089 -110.881 32.6165 63.6587 3.06485e-006 3.83064e-007 2.31611e-006 -19.1623 80.0505 24.1569 -3.64487e-008 1.91204e-005 2.99998 -8.0291 -4.95163 -0.69771 -9.3796 79.3689 -171.56 180 7.01604e-015 179.211 -19.2636 74.5299 21.9692 2.8108e-006 -6.85472e-006 1.88861 -46.1275 83.6475 56.3684 8.13649 25.2327 -3.48774 -25.108 76.0538 -162.293 4.5067e-006 -1.99009e-005 -1.62241 167.333 -77.4053 165.62 -1.85049e-006 -4.47481e-006 -3.25774 45.507 79.5196 -43.5945 -8.17967 25.8936 3.50629 
49.5201 55.1955 7.71062 -5.98124 17.5015 16.1937 1.21414 5.41719 -0.664048 2.55046 14.8185 -1.62184 2.58298 16.4624 -1.67195 -28.9287 -35.0854 -19.6248 15.6848 -0.855234 -12.3468 31.4932 -15.3549 -11.6652 138.372 31.3189 -69.487 -5.04577e-006 -5.35856e-006 -8.16184e-006 25.7022 64.3477 -16.5523 -6.64795e-006 1.65782e-005 -3 8.02888 -4.95096 0.697435 -41.6835 -16.034 11.4055 -110.807 32.5683 63.6689 3.06485e-006 3.83064e-007 2.31611e-006 -19.0591 80.1003 24.0928 -3.64487e-008 1.91204e-005 2.99998 -8.0291 -4.95163 -0.69771 -9.44001 79.3743 -171.511 180 7.01604e-015 179.212 -19.3656 74.6526 22.052 2.8108e-006 -6.85472e-006 1.89174 -46.4527 83.6709 56.6698 8.13649 25.2327 -3.48774 -25.1553 76.0616 -162.224 4.5067e-006 -1.99009e-005 -1.61668 167.352 -77.5201 165.675 -1.85049e-006 -4.47481e-006 -3.25324 45.6323 79.5526 -43.7428 -8.18012 25.9 3.50647 
49.5498 55.2921 7.75605 -6.01379 17.6457 16.1945 1.20929 5.39867 -0.665864 2.54071 14.7815 -1.62393 2.57317 16.4254 -1.67386 -28.9342 -35.2893 -19.6664 15.649 -0.77397 -12.3345 31.5448 -15.3506 -11.6561 138.411 31.3596 -69.4872 -5.04577e-006 -5.35856e-006 -8.16184e-006 25.6884 64.1429 -16.4513 -6.64795e-006 1.65782e-005 -3 8.02888 -4.95096 0.697435 -41.7294 -16.0316 11.3996 -110.744 32.5216 63.6745 3.06485e-006 3.83064e-007 2.31611e-006 -18.98 80.1401 24.0447 -3.64487e-008 1.91204e-005 2.99998 -8.0291 -4.95163 -0.69771 -9.53579 79.3868 -171.423 180 7.01605e-015 179.212 -19.4664 74.7757 22.1334 2.8108e-006 -6.85472e-006 1.89521 -46.7916 83.6943 56.982 8.13649 25.2327 -3.48774 -25.244 76.0769 -162.116 4.5067e-006 -1.99009e-005 -1.61118 167.374 -77.641 165.736 -1.85049e-006 -4.47481e-006 -3.24853 45.8102 79.5926 -43.9353 -8.17975 25.8947 3.5063 
49.5099 55.3912 7.823 -6.04674 17.7827 16.1898 1.205 5.38131 -0.667392 2.53228 14.7468 -1.62564 2.56469 16.3907 -1.6754 -28.9487 -35.4867 -19.7094 15.6224 -0.698325 -12.3218 31.5901 -15.3448 -11.6458 138.456 31.4058 -69.4931 -5.04577e-006 -5.35856e-006 -8.16184e-006 25.6721 63.93 -16.3454 -6.64795e-006 1.65782e-005 -3 8.02888 -4.95096 0.697435 -41.7778 -16.0269 11.3913 -110.683 32.4717 63.6722 3.06485e-006 3.83064e-007 2.31611e-006 -18.9118 80.1754 24.0038 -3.64487e-008 1.91204e-005 2.99998 -8.0291 -4.95163 -0.69771 -9.66987 79.4067 -171.292 180 7.01605e-015 179.212 -19.567 74.9004 22.214 2.8108e-006 -6.85472e-006 1.89895 -47.1423 83.7176 57.3033 8.13649 25.2327 -3.48774 -25.3764 76.0994 -161.966 4.5067e-006 -1.99009e-005 -1.60577 167.397 -77.7674 165.802 -1.85049e-006 -4.47481e-006 -3.24361 46.0362 79.639 -44.1698 -8.17865 25.8788 3.50582 
49.5315 55.4962 7.86501 -6.07986 17.9127 16.1801 1.20123 5.36504 -0.668643 2.52502 14.7143 -1.62697 2.55738 16.3582 -1.67659 -28.971 -35.6778 -19.7535 15.604 -0.628033 -12.3087 31.6297 -15.3375 -11.6346 138.506 31.4569 -69.5038 -5.04577e-006 -5.35856e-006 -8.16184e-006 25.6541 63.7096 -16.2356 -6.64795e-006 1.65782e-005 -3 8.02888 -4.95096 0.697435 -41.8285 -16.0197 11.3806 -110.626 32.4195 63.6625 3.06485e-006 3.83064e-007 2.31611e-006 -18.8546 80.2056 23.9702 -3.64487e-008 1.91204e-005 2.99998 -8.0291 -4.95163 -0.69771 -9.83881 79.4339 -171.122 180 7.01604e-015 179.211 -19.6677 75.0266 22.2943 2.8108e-006 -6.85472e-006 1.90295 -47.5044 83.7408 57.6336 8.13649 25.2327 -3.48774 -25.5488 76.1287 -161.778 4.5067e-006 -1.99009e-005 -1.60046 167.421 -77.8989 165.871 -1.85049e-006 -4.47481e-006 -3.23852 46.3054 79.691 -44.442 -8.17691 25.8536 3.50506 
49.533 55.6033 7.91407 -6.11292 18.0363 16.1661 1.1979 5.3498 -0.669628 2.51877 14.6838 -1.62792 2.55108 16.3278 -1.67742 -29.0002 -35.8626 -19.7984 15.593 -0.56283 -12.2954 31.6644 -15.3288 -11.6223 138.561 31.5125 -69.5183 -5.04577e-006 -5.35856e-006 -8.16184e-006 25.6349 63.4823 -16.1225 -6.64795e-006 1.65782e-005 -3 8.02888 -4.95096 0.697435 -41.8812 -16.0103 11.3678 -110.572 32.3657 63.646 3.06485e-006 3.83064e-007 2.31611e-006 -18.8087 80.2302 23.9436 -3.64487e-008 1.91204e-005 2.99998 -8.0291 -4.95163 -0.69771 -10.0392 79.468 -170.918 180 7.01604e-015 179.211 -19.7692 75.1542 22.375 2.8108e-006 -6.85472e-006 1.90715 -47.8771 83.7639 57.9727 8.13649 25.2327 -3.48774 -25.7575 76.1645 -161.555 4.5067e-006 -1.99009e-005 -1.59524 167.446 -78.0348 165.943 -1.85049e-006 -4.47481e-006 -3.23326 46.6128 79.7477 -44.7475 -8.17463 25.8205 3.50407 
